# xmcd
#
# Track frame offsets: 
#        150
#        14693
#        43572
#        79046
#        107392
#        125493
#        155421
#        181684
#        212687
#
# Disc length: 3134 seconds
#
# Revision: 0
# Processed by: cddbd v1.5.2PL0 Copyright (c) Steve Scherf et al.
# Submitted via: ExactAudioCopyFreeDBPlugin 1.0
#
DISCID=680c3c09
DTITLE=Włodek Pawlik Trio - Pawlik-Moniuszko Polish Jazz
DYEAR=2019
DGENRE=Jazz
TTITLE0=Prząśniczka - The Spinner Girl
TTITLE1=Szumią jodły na gór szczycie - aria Jontka z opery Halka
TTITLE2=Ten zegar stary - aria Skołuby z opery Straszny dwór
TTITLE3=Znasz-li ten kraj - Do You Know the Land...
TTITLE4=Gdyby rannym słonkiem - aria Halki z opery Halka
TTITLE5=Pieśń wieczorna - The Evening Song
TTITLE6=Kum i kuma - A Chap and a Lady
TTITLE7=Matko! Już nie ma Cię - Mother! Now You are Gone!
TTITLE8=Motyw z kurantem - aria Stefana z opery Straszny dwór
EXTD=
EXTT0=
EXTT1=
EXTT2=
EXTT3=
EXTT4=
EXTT5=
EXTT6=
EXTT7=
EXTT8=
PLAYORDER=
